<svg width="1280" height="720" viewBox="0 0 1280 720" fill="none" xmlns="http://www.w3.org/2000/svg">
<rect width="1280" height="720" fill="#1E1E1E"/>
<g id="hud" clip-path="url(#clip0_0_1)">
<rect width="1280" height="720" fill="white"/>
<g id="background">
<rect id="fframe" width="1280" height="720" fill="#D9D9D9"/>
</g>
<g id="moto">
<path id="Vector" d="M715.203 363.461H566.711V508.17H715.203V363.461Z" fill="#808080" stroke="black"/>
<path id="Vector_2" d="M685.994 173.377H595.419V361.605H685.994V173.377Z" fill="#808080" stroke="black"/>
<path id="Vector_3" d="M539.049 132.347L538.589 123.79C538.137 115.368 531.985 108.271 523.279 106.131L496.126 99.458L499.893 85.9987L527.046 92.672C542.043 96.3579 552.64 108.582 553.42 123.09L553.88 131.647L539.049 132.347Z" fill="#B3B3B3" stroke="black"/>
<path id="Vector_4" d="M740.874 132.347L726.042 131.647L726.503 123.09C727.282 108.582 737.882 96.3579 752.876 92.672L780.031 85.9987L783.798 99.458L756.643 106.131C747.939 108.271 741.787 115.368 741.334 123.79L740.874 132.347Z" fill="#B3B3B3" stroke="black"/>
<g id="mirror">
<path id="right_mirror" d="M476.671 114.48C493.61 114.48 507.342 101.612 507.342 85.7399C507.342 69.8673 493.61 57 476.671 57C459.732 57 446 69.8673 446 85.7399C446 101.612 459.732 114.48 476.671 114.48Z" fill="#808080" stroke="black"/>
<path id="left_mirror" d="M803.253 114.48C820.192 114.48 833.924 101.612 833.924 85.7399C833.924 69.8673 820.192 57 803.253 57C786.314 57 772.582 69.8673 772.582 85.7399C772.582 101.612 786.314 114.48 803.253 114.48Z" fill="#808080" stroke="black"/>
</g>
<path id="Vector_5" d="M553.589 444.474H492.034V465.346H553.589V444.474Z" fill="#808080" stroke="black"/>
<path id="Vector_6" d="M787.895 444.474H726.339V465.346H787.895V444.474Z" fill="#808080" stroke="black"/>
<path id="Vector_7" d="M721.136 262.198H558.786C552.635 262.198 547.65 257.525 547.65 251.762C547.65 245.999 552.635 241.326 558.786 241.326H721.136C727.288 241.326 732.273 245.999 732.273 251.762C732.273 257.525 727.288 262.198 721.136 262.198Z" fill="#E6E6E6" stroke="black"/>
<g id="arrow">
<path id="right_arrow" d="M537.5 262C554.345 262 568 254.837 568 246C568 237.163 554.345 230 537.5 230C520.655 230 507 237.163 507 246C507 254.837 520.655 262 537.5 262Z" fill="#E6E6E6" stroke="black"/>
<path id="left_arrow" d="M742.5 262C759.345 262 773 254.837 773 246C773 237.163 759.345 230 742.5 230C725.655 230 712 237.163 712 246C712 254.837 725.655 262 742.5 262Z" fill="#E6E6E6" stroke="black"/>
</g>
<g id="Vector_8">
<path d="M664.716 137.011V111.687C664.716 98.8861 653.623 88.506 639.962 88.506C626.301 88.506 615.209 98.8861 615.209 111.687V137.011" fill="#F15A24"/>
<path d="M664.716 137.011V111.687C664.716 98.8861 653.623 88.506 639.962 88.506C626.301 88.506 615.209 98.8861 615.209 111.687V137.011" stroke="black"/>
</g>
<path id="Vector_9" d="M639.967 303.945C637.026 303.945 634.161 302.831 632.08 300.883C631.575 300.396 631.102 299.868 630.699 299.297C630.298 298.727 629.957 298.128 629.675 297.488C629.394 296.862 629.186 296.208 629.036 295.54C628.902 294.873 628.828 294.191 628.828 293.509C628.828 290.754 630.016 288.068 632.079 286.12C634.662 283.699 638.525 282.586 642.133 283.268C642.844 283.407 643.544 283.602 644.21 283.866C644.894 284.131 645.534 284.451 646.142 284.826C646.75 285.202 647.315 285.647 647.835 286.12C649.914 288.068 651.102 290.754 651.102 293.509C651.102 294.191 651.028 294.873 650.879 295.54C650.731 296.208 650.523 296.862 650.241 297.488C649.959 298.128 649.617 298.727 649.216 299.297C648.815 299.868 648.355 300.396 647.835 300.883C647.315 301.37 646.751 301.802 646.142 302.177C645.534 302.553 644.894 302.873 644.21 303.138C643.544 303.402 642.844 303.597 642.133 303.736C641.422 303.875 640.679 303.945 639.967 303.945Z" fill="#E6E6E6" stroke="black"/>
<g id="XMLID_13_">
<g id="Group">
<path id="Vector_10" d="M816.211 150.623L806.247 169.296L796.298 164.621C786.23 159.904 775.331 155.563 763.704 151.639L771.708 132.173C784.003 136.32 795.541 140.939 806.247 145.948L816.211 150.623Z" fill="#808080" stroke="black"/>
<path id="Vector_11" d="M768.352 120.972C772.183 122.35 774.084 126.371 772.614 129.961L771.708 132.173C767.119 130.615 762.442 129.112 757.646 127.679L758.759 124.966C760.229 121.376 764.521 119.581 768.352 120.972Z" fill="#808080" stroke="black"/>
<path id="Vector_12" d="M771.708 132.173L763.704 151.639C759.131 150.095 754.438 148.606 749.627 147.201L757.646 127.679C762.442 129.112 767.12 130.615 771.708 132.173Z" fill="#808080" stroke="black"/>
<path id="Vector_13" d="M763.704 151.639L762.709 154.074C761.581 156.843 758.759 158.541 755.79 158.541C754.899 158.541 753.993 158.388 753.117 158.068C749.286 156.69 747.385 152.669 748.855 149.079L749.627 147.201C754.438 148.606 759.131 150.095 763.704 151.639Z" fill="#808080" stroke="black"/>
<path id="Vector_14" d="M757.646 127.679L749.627 147.201C744.415 145.656 739.055 144.195 733.59 142.818C703.58 135.248 672.07 131.408 639.967 131.408C607.848 131.408 576.353 135.248 546.328 142.818C540.864 144.195 535.503 145.656 530.291 147.201L522.287 127.679C528.227 125.912 534.3 124.242 540.537 122.67C572.448 114.613 605.903 110.536 639.967 110.536C674.03 110.536 707.485 114.613 739.396 122.67C745.633 124.242 751.706 125.912 757.646 127.679Z" fill="#B3B3B3" stroke="black"/>
<path id="Vector_15" d="M531.063 149.079C532.548 152.669 530.632 156.69 526.801 158.068C525.925 158.388 525.02 158.541 524.143 158.541C521.159 158.541 518.337 156.843 517.209 154.074L516.214 151.653C520.788 150.095 525.48 148.62 530.291 147.201L531.063 149.079Z" fill="#808080" stroke="black"/>
<path id="Vector_16" d="M522.287 127.679L530.291 147.201C525.48 148.62 520.788 150.095 516.214 151.653L508.21 132.173C512.799 130.615 517.491 129.112 522.287 127.679Z" fill="#808080" stroke="black"/>
<path id="Vector_17" d="M521.174 124.966L522.287 127.679C517.491 129.112 512.799 130.615 508.21 132.173L507.305 129.961C505.835 126.371 507.75 122.35 511.581 120.972C515.397 119.595 519.704 121.376 521.174 124.966Z" fill="#808080" stroke="black"/>
<path id="Vector_18" d="M508.21 132.173L516.214 151.653C504.587 155.563 493.703 159.904 483.635 164.621L473.671 169.296L463.708 150.623L473.671 145.948C484.378 140.939 495.915 136.333 508.21 132.173Z" fill="#808080" stroke="black"/>
</g>
</g>
<path id="Vector_19" d="M705.808 353.799V369.105H700.744H681.292C681.292 358.92 677.075 349.639 670.17 342.724V205.946L678.47 149.733C694.151 153.225 705.808 166.444 705.808 182.195V353.799Z" fill="#B3B3B3" stroke="black"/>
<path id="Vector_20" d="M681.292 525.418V623.277C681.292 644.621 662.745 662 639.967 662C617.173 662 598.627 644.621 598.627 623.277V525.418V496.184V369.105H609.778V342.696C617.307 335.126 628.058 330.382 639.967 330.382C651.876 330.382 662.641 335.126 670.17 342.724V369.105H681.292V496.184V525.418Z" fill="#666666" stroke="black"/>
<path id="Vector_21" d="M681.292 369.105H670.17V342.724C677.075 349.639 681.292 358.92 681.292 369.105Z" fill="#666666" stroke="black"/>
<path id="Vector_22" d="M609.778 342.696V369.105H598.627C598.627 358.906 602.859 349.625 609.778 342.696Z" fill="#666666" stroke="black"/>
<path id="Vector_23" d="M609.778 205.946V342.696C602.859 349.625 598.627 358.906 598.627 369.105H579.174H574.14V353.799V182.195C574.14 166.444 585.782 153.225 601.463 149.733L609.778 205.946Z" fill="#B3B3B3" stroke="black"/>
<path id="Vector_24" d="M688.969 376.322C688.969 376.322 688.935 453.441 688.891 453.441H591.027C590.984 453.441 590.95 376.322 590.95 376.322C590.95 350.959 612.892 330.398 639.959 330.398C667.028 330.398 688.969 350.959 688.969 376.322Z" fill="#F15A24" stroke="black"/>
<g id="Group_2">
<path id="Vector_25" d="M639.962 216.513C665.385 216.513 685.994 197.201 685.994 173.379C685.994 149.556 665.385 130.245 639.962 130.245C614.539 130.245 593.93 149.556 593.93 173.379C593.93 197.201 614.539 216.513 639.962 216.513Z" fill="#F7CF52" stroke="black"/>
<path id="Vector_26" d="M639.962 226.253C608.849 226.253 583.535 202.533 583.535 173.379C583.535 144.224 608.849 120.505 639.962 120.505C671.075 120.505 696.389 144.224 696.389 173.379C696.389 202.533 671.077 226.253 639.962 226.253ZM639.962 135.191C617.491 135.191 599.21 152.322 599.21 173.377C599.21 194.432 617.491 211.564 639.962 211.564C662.433 211.564 680.714 194.432 680.714 173.377C680.714 152.322 662.435 135.191 639.962 135.191Z" fill="#F15A24" stroke="black"/>
</g>
<path id="Vector_27" d="M579.174 496.184V353.799H565.305C552.684 353.799 542.452 363.386 542.452 375.213V504.004C542.452 515.831 552.684 525.418 565.305 525.418H598.627V496.184H579.174Z" fill="#999999" stroke="black"/>
<path id="Vector_28" d="M714.628 353.799H700.744V496.184H681.292V525.418H714.628C727.25 525.418 737.481 515.831 737.481 504.004V375.213C737.481 363.386 727.25 353.799 714.628 353.799Z" fill="#999999" stroke="black"/>
</g>
</g>
<defs>
<clipPath id="clip0_0_1">
<rect width="1280" height="720" fill="white"/>
</clipPath>
</defs>
</svg>
